<svg id="Calque_1" data-name="Calque 1" xmlns="http://www.w3.org/2000/svg" viewBox="0 0 180 180"><defs><style>.cls-1{fill:#3e2da5;}</style></defs><path class="cls-1" d="M108.48,12.28c-24.72-6-60,2.59-80.92,26.33C4,65.36,4.69,108.33,26.48,135.33c43.87,54.37,147.77,45,145.36-46.58-.68-25.7-28.87-15-26.7-2.39,9.83,57-71.55,86.72-101,35.32-29.35-51.23,13.07-90.43,61-84.33C120.7,39.33,125.93,16.5,108.48,12.28Z"/><path class="cls-1" d="M149.08,25.76c-.85.95-40.39,40.56-58.87,66.62-12.58-9.91-15-13.06-28.67-21.63-9.7-6.09-19.75,7.43-13.76,14.31,14.45,16.6,22.06,22.72,32.53,38.24,7.33,10.87,19.84,8,24.09.4C121.67,92.78,136.26,67,160.73,33.83,166.08,26.59,157,16.89,149.08,25.76Z"/></svg>