<svg xmlns="http://www.w3.org/2000/svg" viewBox="0 0 791.01 210.72"><g id="ws-logo-colored"><g id="logo-o"><g id="logo-circle"><path d="M212.67,64.58c-17.15-4.15-41.67,1.8-56.15,18.27-16.32,18.56-15.87,48.38-.75,67.11,30.44,37.73,102.53,31.21,100.86-32.32-.47-17.83-20-10.39-18.53-1.65,6.82,39.55-49.64,60.16-70.07,24.5S177.09,77.75,210.38,82C221.14,83.35,224.78,67.51,212.67,64.58Z" style="fill:#2fafff"/></g><path id="logo-check" d="M240.84,73.94c-.59.66-28,28.14-40.85,46.22-8.73-6.87-10.42-9.06-19.89-15-6.74-4.22-13.71,5.16-9.55,9.93,10,11.52,15.31,15.76,22.57,26.53,5.09,7.55,13.76,5.57,16.71.28,12-21.45,22.11-39.38,39.09-62.36C252.63,74.51,246.33,67.78,240.84,73.94Z" style="fill:#2fafff"/><g id="logo-lids-top"><path d="M193.89,34c-1.08,7.5-.68,10.78.4,18.26a5.18,5.18,0,0,0,5.65,4.1c3.9-.56,4.78-4.8,4.76-7.25-.07-6-.73-7.17-.44-12.24.23-4-1.53-6.38-5.23-6.79A4.62,4.62,0,0,0,193.89,34Z" style="fill:#2fafff"/><path d="M160.5,57.64c1.29,1.65.6,1,1.91,2.65,4.69,5.86,14.35-.78,8.77-6.54A24.13,24.13,0,0,1,168.41,50c-3.89-6.61-12.19.91-7.91,7.68Z" style="fill:#2fafff"/><path d="M224.35,53.53c-1.3,4.29,3.29,7.84,8.15,3.89,2.14-1.73,2.57-3.36,3.7-6.63,2.63-7.58-5.91-9.82-8.88-3.65A63,63,0,0,0,224.35,53.53Z" style="fill:#2fafff"/></g><g id="logo-lids-bottom"><path d="M204.72,203.51c1.12-7.5.73-10.78-.31-18.27a5.18,5.18,0,0,0-5.63-4.12c-3.91.54-4.81,4.78-4.79,7.23,0,6,.7,7.17.38,12.24-.25,4,1.5,6.39,5.2,6.82a4.62,4.62,0,0,0,5.15-3.9Z" style="fill:#2fafff"/><path d="M239.07,182.56c-1.28-1.66-.59-1-1.9-2.66-4.66-5.89-12.69,1.65-7.95,7.64,1.31,1.66,1.59,2.14,2.33,3.1,3.72,4.83,11.77-1.29,7.52-8.08Z" style="fill:#2fafff"/><path d="M173.05,182.5c1.32-4.29-3.26-7.86-8.13-3.93-2.15,1.72-2.59,3.35-3.74,6.62-2.66,7.56,5.86,9.84,8.86,3.68A61.31,61.31,0,0,0,173.05,182.5Z" style="fill:#2fafff"/></g></g><g id="logo-letters"><path id="logo-f2" d="M785.91,72.74H768.72V64c0-5.93,3-8.69,9.54-8.69a9.78,9.78,0,0,1,3.87.89l7.45-16a24.3,24.3,0,0,0-2.75-1.37,26.69,26.69,0,0,0-10.6-2.13c-8.05,0-14.72,2.59-19.82,7.69S748.72,56.09,748.72,64v8.71H731.24a1.18,1.18,0,0,0-1.18,1.17v16A1.18,1.18,0,0,0,731.24,91h17.48v71.33a1.25,1.25,0,0,0,1.24,1.25h17.52a1.24,1.24,0,0,0,1.24-1.25V91h17.19a1.18,1.18,0,0,0,1.17-1.18v-16A1.18,1.18,0,0,0,785.91,72.74Z" style="fill:#3e2da5"/><path id="logo-f1" d="M733,38.81a26.69,26.69,0,0,0-10.6-2.13c-8,0-14.72,2.59-19.82,7.69S694.91,56.09,694.91,64v8.71H677.44a1.18,1.18,0,0,0-1.18,1.17v16A1.18,1.18,0,0,0,677.44,91h17.47v71.33a1.25,1.25,0,0,0,1.25,1.25h17.51a1.25,1.25,0,0,0,1.25-.94V64.35c0-6.25,3-9,9.53-9a9.78,9.78,0,0,1,3.87.89l7.45-16A24.3,24.3,0,0,0,733,38.81Z" style="fill:#3e2da5"/><path id="logo-a" d="M661.87,92.72a44,44,0,0,0-15.69-16.79,45.51,45.51,0,0,0-23.22-7,42.22,42.22,0,0,0-22.57,6.15,44,44,0,0,0-15.68,16.8A50.39,50.39,0,0,0,579,116.16a50.43,50.43,0,0,0,5.75,24.28,43.89,43.89,0,0,0,15.68,16.79,44.18,44.18,0,0,0,45,0c.78-.48,1.56-1,2.32-1.48v6.62a1.25,1.25,0,0,0,1.25,1.25h17.51a1.25,1.25,0,0,0,1.25-1.25V116.72a1.45,1.45,0,0,0-.09-.46A50.32,50.32,0,0,0,661.87,92.72ZM644.59,131a26,26,0,0,1-8.85,10.3A22.6,22.6,0,0,1,623,145.06a22.91,22.91,0,0,1-12.87-3.77A25.6,25.6,0,0,1,601.16,131a32.07,32.07,0,0,1-3.06-14.86,32,32,0,0,1,3.06-14.81A25.67,25.67,0,0,1,610.09,91,24,24,0,0,1,635.75,91a25.34,25.34,0,0,1,8.84,10.21,32.41,32.41,0,0,1,3.06,15A32,32,0,0,1,644.59,131Z" style="fill:#3e2da5"/><path id="logo-t" d="M564.3,144.17a26.11,26.11,0,0,1-14.19-9.38c-6.82-8.68-5.8-19.25-5.8-19.25V91H562a1.18,1.18,0,0,0,1.18-1.17v-16A1.18,1.18,0,0,0,562,72.65H544.3V42.53a1.25,1.25,0,0,0-1.25-1.24H525.42a1.24,1.24,0,0,0-1.24,1.24s-.37,51.14-.37,73.1,11.4,36.05,23.88,43.43c7,4.16,16.38,5.62,16.38,5.62a1.24,1.24,0,0,0,1.25-1.24l.21-17.94C565.53,144.81,565.33,144.47,564.3,144.17Z" style="fill:#3e2da5"/><path id="logo-s" d="M503.81,119a30.64,30.64,0,0,0-9-6.38,79.34,79.34,0,0,0-14.13-5c-7.42-1.9-12.3-3.78-14.5-5.61a8.46,8.46,0,0,1-3.24-6.57,7.94,7.94,0,0,1,3.41-7c2.41-1.68,5.95-2.53,10.49-2.53a23.53,23.53,0,0,1,10.31,2.87l.05,0a2.54,2.54,0,0,0,3.46-1.18L496,76.21a2.6,2.6,0,0,0-1.25-3.5l0,0a46.61,46.61,0,0,0-18.76-4,38.86,38.86,0,0,0-16.6,3.47,30,30,0,0,0-11.85,9.61A23.69,23.69,0,0,0,443.06,96c0,6.57,1.73,12.1,5.17,16.46a31.58,31.58,0,0,0,10,7.71,79.17,79.17,0,0,0,16.24,6c7.44,2,12.21,3.84,14.17,5.41a7.8,7.8,0,0,1,2.76,6.25,8.85,8.85,0,0,1-3.47,7.42,15,15,0,0,1-9.43,2.83,31.84,31.84,0,0,1-13.06-2.56,30,30,0,0,1-10.58-8.34,1.24,1.24,0,0,0-1.76-.14L441.3,147.28a1.28,1.28,0,0,0-.18,1.73,38.67,38.67,0,0,0,15.32,12.09A50.29,50.29,0,0,0,477,165.17a38.61,38.61,0,0,0,16.69-3.56,30.37,30.37,0,0,0,12-10,24.79,24.79,0,0,0,4.53-14.58,33.7,33.7,0,0,0-1.4-10A19.27,19.27,0,0,0,503.81,119Z" style="fill:#3e2da5"/><path id="logo-k" d="M390,112.94l40.55-38.09a1.24,1.24,0,0,0-.85-2.15H406.32a1.27,1.27,0,0,0-.88.36l-37.78,37.47V37.74a1.25,1.25,0,0,0-1.25-1.25H349.07a1.25,1.25,0,0,0-1.25,1.25V162.35a1.25,1.25,0,0,0,1.25,1.25h17.34a1.25,1.25,0,0,0,1.25-1.25V133.92l8.26-7.82L414.78,175a1.28,1.28,0,0,0,1,.43H438a1.25,1.25,0,0,0,.94-2.06Z" style="fill:#3e2da5"/><path id="logo-r" d="M332,74.22A50.36,50.36,0,0,0,324,73.6a45.65,45.65,0,0,0-23.44,6.06c-.83.49-1.63,1-2.42,1.53V73.9a1.25,1.25,0,0,0-1.25-1.24H279.39a1.25,1.25,0,0,0-1.25,1.24v88.41a1.25,1.25,0,0,0,1.25,1.25H296.9a1.25,1.25,0,0,0,1.25-1.25v-42.6l0-.08a30,30,0,0,1,3.18-14.6c2.21-4.26,8.54-14.54,25.52-12,1.15.17,1.9.3,2.29-.8l4.94-15.65C334.62,75.07,333.47,74.46,332,74.22Z" style="fill:#3e2da5"/><path id="logo-w" d="M130,72.72H112.44a1.26,1.26,0,0,0-1.19.86L92.54,130.66,72.82,87.42a1.25,1.25,0,0,0-1.13-.73H61.24a1.25,1.25,0,0,0-1.13.74L40.22,131.31,21.34,73.41a1.25,1.25,0,0,0-1.19-.86l-17.52.17a1.22,1.22,0,0,0-1,.53,1.24,1.24,0,0,0-.17,1.12l30.15,88.4a1.24,1.24,0,0,0,1.18.85H44.57a1.25,1.25,0,0,0,1.16-.78L65.66,114.2l21.39,48.67a1.23,1.23,0,0,0,1.14.75h12a1.26,1.26,0,0,0,1.19-.85l29.8-88.41a1.21,1.21,0,0,0-.17-1.12A1.23,1.23,0,0,0,130,72.72Z" style="fill:#3e2da5"/></g></g></svg>